<?xml version="1.0" encoding="UTF-8"?>
<svg width="30px" height="38px" viewBox="0 0 30 38" version="1.1" xmlns="http://www.w3.org/2000/svg" xmlns:xlink="http://www.w3.org/1999/xlink">
    <!-- Generator: sketchtool 52.2 (67145) - http://www.bohemiancoding.com/sketch -->
    <title>C4275B15-0AA8-4C78-B31F-8FD578EE1999</title>
    <desc>Created with sketchtool.</desc>
    <g id="Page-1" stroke="none" stroke-width="1" fill="none" fill-rule="evenodd">
        <g id="профиль" transform="translate(-1006.000000, -396.000000)" fill="#53BE4F">
            <g id="padlock" transform="translate(1006.000000, 396.000000)">
                <path d="M25.5882353,13.8235294 L22.9384559,13.8235294 L22.9384559,7.77720588 C22.9384559,3.48882353 19.3760294,0 14.9972794,0 C10.6185294,0 7.05610294,3.48882353 7.05610294,7.77720588 L7.05610294,13.8235294 L4.41176471,13.8235294 C1.97911765,13.8235294 0,15.8026471 0,18.2352941 L0,33.2352941 C0,35.6679412 1.97911765,37.6470588 4.41176471,37.6470588 L25.5882353,37.6470588 C28.0208824,37.6470588 30,35.6679412 30,33.2352941 L30,18.2352941 C30,15.8026471 28.0208824,13.8235294 25.5882353,13.8235294 Z M9.99727941,7.77720588 C9.99727941,5.11058824 12.2402941,2.94117647 14.9972794,2.94117647 C17.7542647,2.94117647 19.9972794,5.11058824 19.9972794,7.77720588 L19.9972794,13.8235294 L9.99727941,13.8235294 L9.99727941,7.77720588 Z M27.0588235,33.2352941 C27.0588235,34.0461765 26.3991176,34.7058824 25.5882353,34.7058824 L4.41176471,34.7058824 C3.60088235,34.7058824 2.94117647,34.0461765 2.94117647,33.2352941 L2.94117647,18.2352941 C2.94117647,17.4244118 3.60088235,16.7647059 4.41176471,16.7647059 L25.5882353,16.7647059 C26.3991176,16.7647059 27.0588235,17.4244118 27.0588235,18.2352941 L27.0588235,33.2352941 Z" id="Shape" fill-rule="nonzero"></path>
                <path d="M14.7205882,21 C13.2180147,21 12,22.2180147 12,23.7205882 C12,24.68 12.4970588,25.5227941 13.2472794,26.0072059 L13.2472794,29.2352941 C13.2472794,30.0474265 13.9056618,30.7058824 14.7178676,30.7058824 C15.53,30.7058824 16.1884559,30.0474265 16.1884559,29.2352941 L16.1884559,26.0106618 C16.9416912,25.5268382 17.4411765,24.6823529 17.4411765,23.7205882 C17.4411765,22.2180147 16.2231618,21 14.7205882,21 Z" id="Path"></path>
            </g>
        </g>
    </g>
</svg>