<?xml version="1.0" encoding="UTF-8"?>
<svg width="153px" height="35px" viewBox="0 0 153 35" version="1.1" xmlns="http://www.w3.org/2000/svg" xmlns:xlink="http://www.w3.org/1999/xlink">
    <!-- Generator: sketchtool 52.2 (67145) - http://www.bohemiancoding.com/sketch -->
    <title>9D29110D-1103-4DF4-A0BA-65BDD7E4F34F</title>
    <desc>Created with sketchtool.</desc>
    <g id="Page-1" stroke="none" stroke-width="1" fill="none" fill-rule="evenodd">
        <g id="home" transform="translate(-247.000000, -10.000000)">
            <g id="Group-4" transform="translate(-7.000000, 0.000000)">
                <g id="logo_head" transform="translate(254.000000, 10.000000)">
                    <path d="M51.9521484,24 L51.9521484,13.3359375 L55.6875,13.3359375 C56.9814518,13.3359375 57.9628873,13.5837378 58.6318359,14.0793457 C59.3007846,14.5749536 59.6352539,15.3012647 59.6352539,16.2583008 C59.6352539,16.7807643 59.5009779,17.2409648 59.2324219,17.638916 C58.9638658,18.0368672 58.5903344,18.3286124 58.1118164,18.5141602 C58.6586941,18.6508796 59.089598,18.9267557 59.404541,19.3417969 C59.719484,19.756838 59.8769531,20.2646454 59.8769531,20.8652344 C59.8769531,21.8906301 59.549808,22.6669896 58.8955078,23.1943359 C58.2412077,23.7216823 57.3085998,23.9902343 56.0976562,24 L51.9521484,24 Z M54.1494141,19.3564453 L54.1494141,22.2348633 L56.0317383,22.2348633 C56.549319,22.2348633 56.9533677,22.1115735 57.2438965,21.8649902 C57.5344253,21.618407 57.6796875,21.2778342 57.6796875,20.8432617 C57.6796875,19.8666943 57.1743215,19.3710938 56.1635742,19.3564453 L54.1494141,19.3564453 Z M54.1494141,17.8037109 L55.7753906,17.8037109 C56.8837946,17.7841796 57.4379883,17.3422895 57.4379883,16.4780273 C57.4379883,15.9946265 57.2976088,15.6467296 57.0168457,15.4343262 C56.7360826,15.2219228 56.2929718,15.1157227 55.6875,15.1157227 L54.1494141,15.1157227 L54.1494141,17.8037109 Z M65.1196289,24 L62.9956055,24 L62.9956055,16.0751953 L65.1196289,16.0751953 L65.1196289,24 Z M62.8710938,14.0244141 C62.8710938,13.7070297 62.9772939,13.4458018 63.1896973,13.2407227 C63.4021007,13.0356435 63.6914044,12.9331055 64.0576172,12.9331055 C64.4189471,12.9331055 64.7070302,13.0356435 64.921875,13.2407227 C65.1367198,13.4458018 65.2441406,13.7070297 65.2441406,14.0244141 C65.2441406,14.3466813 65.1354991,14.6103505 64.9182129,14.8154297 C64.7009266,15.0205088 64.4140643,15.1230469 64.0576172,15.1230469 C63.7011701,15.1230469 63.4143077,15.0205088 63.1970215,14.8154297 C62.9797352,14.6103505 62.8710938,14.3466813 62.8710938,14.0244141 Z M68.0332031,19.9643555 C68.0332031,19.1782187 68.1845688,18.4775421 68.4873047,17.8623047 C68.7900406,17.2470672 69.2258272,16.7709978 69.7946777,16.434082 C70.3635282,16.0971663 71.023922,15.9287109 71.7758789,15.9287109 C72.8452202,15.9287109 73.7180142,16.2558561 74.3942871,16.9101562 C75.07056,17.5644564 75.4477535,18.4531194 75.5258789,19.5761719 L75.5405273,20.1181641 C75.5405273,21.3339905 75.2011753,22.3093225 74.5224609,23.0441895 C73.8437466,23.7790564 72.9331112,24.1464844 71.7905273,24.1464844 C70.6479435,24.1464844 69.7360874,23.7802771 69.0549316,23.0478516 C68.3737759,22.315426 68.0332031,21.3193422 68.0332031,20.0595703 L68.0332031,19.9643555 Z M70.1499023,20.1181641 C70.1499023,20.8701209 70.2915025,21.4450664 70.574707,21.8430176 C70.8579116,22.2409688 71.263181,22.4399414 71.7905273,22.4399414 C72.3032252,22.4399414 72.7036118,22.2434102 72.9916992,21.8503418 C73.2797866,21.4572734 73.4238281,20.8286176 73.4238281,19.9643555 C73.4238281,19.2270471 73.2797866,18.6557637 72.9916992,18.2504883 C72.7036118,17.8452128 72.2983425,17.6425781 71.7758789,17.6425781 C71.2582982,17.6425781 70.8579116,17.8439921 70.574707,18.2468262 C70.2915025,18.6496602 70.1499023,19.2734333 70.1499023,20.1181641 Z M81.9916992,24.1464844 C80.829584,24.1464844 79.8835486,23.7900426 79.1535645,23.0771484 C78.4235803,22.3642542 78.0585938,21.4145567 78.0585938,20.2280273 L78.0585938,20.0229492 C78.0585938,19.2270468 78.2124008,18.515384 78.5200195,17.8879395 C78.8276383,17.2604949 79.2634249,16.7771013 79.8273926,16.4377441 C80.3913602,16.098387 81.0346644,15.9287109 81.7573242,15.9287109 C82.841314,15.9287109 83.694577,16.2705044 84.3171387,16.9541016 C84.9397004,17.6376987 85.2509766,18.6069273 85.2509766,19.8618164 L85.2509766,20.7260742 L80.2045898,20.7260742 C80.2729496,21.2436549 80.4792463,21.6586898 80.8234863,21.9711914 C81.1677263,22.283693 81.603513,22.4399414 82.1308594,22.4399414 C82.9462931,22.4399414 83.5834938,22.1445342 84.0424805,21.5537109 L85.0825195,22.7182617 C84.7651351,23.1674827 84.3354519,23.517821 83.793457,23.7692871 C83.2514621,24.0207532 82.6508822,24.1464844 81.9916992,24.1464844 Z M81.75,17.6425781 C81.330076,17.6425781 80.9895033,17.7841783 80.7282715,18.0673828 C80.4670397,18.3505874 80.2998051,18.7558567 80.2265625,19.2832031 L83.1708984,19.2832031 L83.1708984,19.1147461 C83.1611328,18.6459938 83.0341809,18.2834485 82.7900391,18.0270996 C82.5458972,17.7707507 82.199221,17.6425781 81.75,17.6425781 Z M90.9697266,18.440918 L92.3027344,16.0751953 L94.565918,16.0751953 L92.3100586,19.9570312 L94.6611328,24 L92.390625,24 L90.9770508,21.5097656 L89.5708008,24 L87.2929688,24 L89.644043,19.9570312 L87.3955078,16.0751953 L89.6660156,16.0751953 L90.9697266,18.440918 Z M100.233398,22.4399414 C100.624025,22.4399414 100.941405,22.3325206 101.185547,22.1176758 C101.429689,21.902831 101.556641,21.6171893 101.566406,21.2607422 L103.55127,21.2607422 C103.546387,21.7978542 103.399904,22.2897927 103.111816,22.7365723 C102.823729,23.1833518 102.429446,23.5300281 101.928955,23.7766113 C101.428464,24.0231946 100.875491,24.1464844 100.27002,24.1464844 C99.1372014,24.1464844 98.2436556,23.7863806 97.5893555,23.0661621 C96.9350553,22.3459437 96.6079102,21.3510806 96.6079102,20.081543 L96.6079102,19.9423828 C96.6079102,18.7216736 96.9326139,17.7475622 97.5820312,17.0200195 C98.2314486,16.2924768 99.1225529,15.9287109 100.255371,15.9287109 C101.246587,15.9287109 102.041257,16.2106905 102.639404,16.7746582 C103.237552,17.3386259 103.541504,18.0893508 103.55127,19.0268555 L101.566406,19.0268555 C101.556641,18.6166972 101.429689,18.2834485 101.185547,18.0270996 C100.941405,17.7707507 100.619143,17.6425781 100.21875,17.6425781 C99.7255835,17.6425781 99.3532727,17.8220197 99.1018066,18.1809082 C98.8503405,18.5397967 98.7246094,19.1220663 98.7246094,19.9277344 L98.7246094,20.1474609 C98.7246094,20.9628947 98.8491198,21.5488263 99.0981445,21.9052734 C99.3471692,22.2617205 99.7255834,22.4399414 100.233398,22.4399414 Z M108.325195,16.9394531 C108.886722,16.2656216 109.592281,15.9287109 110.441895,15.9287109 C112.160653,15.9287109 113.032226,16.9272361 113.056641,18.9243164 L113.056641,24 L110.939941,24 L110.939941,18.9829102 C110.939941,18.5288063 110.842286,18.1931163 110.646973,17.9758301 C110.451659,17.7585438 110.126955,17.6499023 109.672852,17.6499023 C109.052731,17.6499023 108.603517,17.8891578 108.325195,18.3676758 L108.325195,24 L106.208496,24 L106.208496,12.75 L108.325195,12.75 L108.325195,16.9394531 Z M120.745605,24 C120.647949,23.8095694 120.577149,23.5727553 120.533203,23.2895508 C120.020505,23.8608427 119.354008,24.1464844 118.533691,24.1464844 C117.75732,24.1464844 117.114016,23.9218772 116.60376,23.4726562 C116.093503,23.0234353 115.838379,22.4570347 115.838379,21.7734375 C115.838379,20.9335896 116.149655,20.2890647 116.772217,19.8398438 C117.394779,19.3906228 118.294428,19.1635742 119.471191,19.1586914 L120.445312,19.1586914 L120.445312,18.7045898 C120.445312,18.3383771 120.351319,18.0454113 120.16333,17.8256836 C119.975341,17.6059559 119.678713,17.4960938 119.273438,17.4960938 C118.91699,17.4960938 118.637452,17.5815421 118.434814,17.7524414 C118.232177,17.9233407 118.130859,18.1577134 118.130859,18.4555664 L116.01416,18.4555664 C116.01416,17.9965797 116.15576,17.5717793 116.438965,17.1811523 C116.722169,16.7905254 117.122556,16.484132 117.640137,16.2619629 C118.157717,16.0397938 118.738766,15.9287109 119.383301,15.9287109 C120.359868,15.9287109 121.135007,16.1740698 121.70874,16.6647949 C122.282474,17.15552 122.569336,17.8452104 122.569336,18.7338867 L122.569336,22.1689453 C122.574219,22.9209022 122.679198,23.4897442 122.884277,23.8754883 L122.884277,24 L120.745605,24 Z M118.995117,22.527832 C119.307619,22.527832 119.595702,22.4582526 119.859375,22.3190918 C120.123048,22.1799309 120.318359,21.9931652 120.445312,21.7587891 L120.445312,20.3964844 L119.654297,20.3964844 C118.594721,20.3964844 118.030762,20.7626917 117.962402,21.4951172 L117.955078,21.6196289 C117.955078,21.8833021 118.047851,22.1005851 118.233398,22.2714844 C118.418946,22.4423837 118.67285,22.527832 118.995117,22.527832 Z M127.643555,16.0751953 L127.709473,16.9907227 C128.275882,16.2827113 129.035151,15.9287109 129.987305,15.9287109 C130.827153,15.9287109 131.452146,16.1752905 131.862305,16.668457 C132.272463,17.1616236 132.482422,17.8989209 132.492188,18.8803711 L132.492188,24 L130.375488,24 L130.375488,18.9316406 C130.375488,18.4824196 130.277833,18.1564952 130.08252,17.9538574 C129.887206,17.7512197 129.562502,17.6499023 129.108398,17.6499023 C128.512692,17.6499023 128.065919,17.9038061 127.768066,18.4116211 L127.768066,24 L125.651367,24 L125.651367,16.0751953 L127.643555,16.0751953 Z M135.288574,19.9790039 C135.288574,18.7631775 135.577878,17.7841834 136.156494,17.0419922 C136.73511,16.299801 137.515132,15.9287109 138.496582,15.9287109 C139.365727,15.9287109 140.04199,16.2265595 140.525391,16.8222656 L140.613281,16.0751953 L142.532227,16.0751953 L142.532227,23.7363281 C142.532227,24.429691 142.374757,25.0327123 142.059814,25.5454102 C141.744871,26.058108 141.301761,26.4487291 140.730469,26.7172852 C140.159177,26.9858412 139.490238,27.1201172 138.723633,27.1201172 C138.142575,27.1201172 137.576175,27.0041516 137.024414,26.7722168 C136.472653,26.540282 136.055177,26.2412128 135.771973,25.875 L136.709473,24.5859375 C137.236819,25.1767608 137.876461,25.472168 138.628418,25.472168 C139.189944,25.472168 139.626952,25.322023 139.939453,25.0217285 C140.251955,24.721434 140.408203,24.2954129 140.408203,23.7436523 L140.408203,23.3188477 C139.919919,23.8706082 139.277836,24.1464844 138.481934,24.1464844 C137.52978,24.1464844 136.759524,23.7741736 136.171143,23.029541 C135.582761,22.2849084 135.288574,21.2973694 135.288574,20.0668945 L135.288574,19.9790039 Z M137.405273,20.1328125 C137.405273,20.8505895 137.549315,21.413328 137.837402,21.8210449 C138.12549,22.2287618 138.520994,22.4326172 139.023926,22.4326172 C139.66846,22.4326172 140.129881,22.1909204 140.408203,21.7075195 L140.408203,18.375 C140.124999,17.8915991 139.66846,17.6499023 139.038574,17.6499023 C138.530759,17.6499023 138.131593,17.8574198 137.841064,18.2724609 C137.550536,18.6875021 137.405273,19.3076131 137.405273,20.1328125 Z M149.305664,24.1464844 C148.143549,24.1464844 147.197513,23.7900426 146.467529,23.0771484 C145.737545,22.3642542 145.372559,21.4145567 145.372559,20.2280273 L145.372559,20.0229492 C145.372559,19.2270468 145.526366,18.515384 145.833984,17.8879395 C146.141603,17.2604949 146.57739,16.7771013 147.141357,16.4377441 C147.705325,16.098387 148.348629,15.9287109 149.071289,15.9287109 C150.155279,15.9287109 151.008542,16.2705044 151.631104,16.9541016 C152.253665,17.6376987 152.564941,18.6069273 152.564941,19.8618164 L152.564941,20.7260742 L147.518555,20.7260742 C147.586914,21.2436549 147.793211,21.6586898 148.137451,21.9711914 C148.481691,22.283693 148.917478,22.4399414 149.444824,22.4399414 C150.260258,22.4399414 150.897459,22.1445342 151.356445,21.5537109 L152.396484,22.7182617 C152.0791,23.1674827 151.649417,23.517821 151.107422,23.7692871 C150.565427,24.0207532 149.964847,24.1464844 149.305664,24.1464844 Z M149.063965,17.6425781 C148.644041,17.6425781 148.303468,17.7841783 148.042236,18.0673828 C147.781005,18.3505874 147.61377,18.7558567 147.540527,19.2832031 L150.484863,19.2832031 L150.484863,19.1147461 C150.475098,18.6459938 150.348146,18.2834485 150.104004,18.0270996 C149.859862,17.7707507 149.513186,17.6425781 149.063965,17.6425781 Z" id="Bioexchange" fill="#ffffff"></path>
                    <g id="eco-energy">
                        <path d="M35.1312785,9.09425196 C32.1323115,3.50891637 26.3342681,0.0390625587 20.0000301,0.0390625587 C15.4153674,0.0390625587 11.1053634,1.82434352 7.8634762,5.06623074 C4.96155527,7.96815167 3.22784907,11.7267022 2.89612248,15.7718133 L2.05688786,14.9322734 C1.58630614,14.4619968 0.823365457,14.4619968 0.352783734,14.9322734 C-0.117492833,15.4028552 -0.117492833,16.1657958 0.352783734,16.6363775 L3.18939691,19.4726855 C3.42468781,19.7079764 3.73291577,19.8257744 4.04144897,19.8257744 C4.34967693,19.8257744 4.65790497,19.7082816 4.8931958,19.4726855 L7.72980897,16.6363775 C8.20039077,16.1657958 8.20039077,15.4028552 7.72980897,14.9322734 C7.25922725,14.4619968 6.49628664,14.4619968 6.02601,14.9322734 L5.33020817,15.6280752 C6.11878358,8.230298 12.396564,2.44873415 20.0000301,2.44873415 C25.4452898,2.44873415 30.4297333,5.43183192 33.0081673,10.2343904 C33.322804,10.8206339 34.0533959,11.040666 34.6396395,10.7257241 C35.2258831,10.4110875 35.4459151,9.68080065 35.1312785,9.09425196 Z" id="Path" fill="#8ADC88"></path>
                        <path d="M33.0081673,10.2343904 C33.322804,10.8206339 34.0533959,11.040666 34.6396395,10.7257241 C35.2258831,10.4110875 35.4459151,9.68080065 35.1312785,9.09425196 C32.1323115,3.50891637 26.3342681,0.0390625587 20.0000301,0.0390625587 L20.0000301,2.44873415 C25.4452898,2.44873415 30.4297333,5.43183192 33.0081673,10.2343904 Z" id="Path" fill="#53BE4F"></path>
                        <path d="M39.6469713,16.3504274 L36.8106633,13.5141195 C36.3400815,13.0435377 35.5771409,13.0435377 35.1065591,13.5141195 L32.2702512,16.3504274 C31.7996694,16.8210092 31.7996694,17.5839498 32.2702512,18.0545315 C32.7405278,18.5248082 33.5034684,18.5248082 33.9740502,18.0545315 L34.7528599,17.2754166 C34.7134921,25.3772354 28.110699,31.9562248 20.0000301,31.9562248 C14.2358613,31.9562248 8.96424692,28.5666323 6.57013926,23.3206527 C6.29395478,22.7154882 5.57953722,22.4487642 4.97406756,22.7249487 C4.3685979,23.0011332 4.10187383,23.715856 4.3780583,24.3213256 C5.72632697,27.2751265 7.87751427,29.7800131 10.5996863,31.5649889 C13.3941851,33.3975722 16.6446173,34.3662016 20.0000301,34.3662016 C24.5846928,34.3662016 28.8946967,32.5809206 32.1362788,29.3390333 C35.3613813,26.1142361 37.1442209,21.8316978 37.1625315,17.2738907 L37.9431723,18.0545315 C38.1784632,18.2895173 38.4869963,18.4073153 38.7952244,18.4073153 C39.1034524,18.4073153 39.4119855,18.2898224 39.6472764,18.0545315 C40.117553,17.5839498 40.117553,16.8210092 39.6469713,16.3504274 Z" id="Path" fill="#53BE4F"></path>
                        <path d="M32.1362788,29.3390333 C35.3613813,26.1139308 37.1442209,21.8316978 37.1625315,17.2738907 L37.9431723,18.0545315 C38.1784632,18.2895173 38.4869963,18.4073153 38.7952244,18.4073153 C39.1034524,18.4073153 39.4119855,18.2898224 39.6472764,18.0545315 C40.117553,17.5839498 40.117553,16.8210092 39.6472764,16.3504274 L36.8106633,13.5141195 C36.3400815,13.0435377 35.5771409,13.0435377 35.1068644,13.5141195 L32.2702512,16.3504274 C31.7996694,16.8210092 31.7996694,17.5839498 32.2702512,18.0545315 C32.7408329,18.5248082 33.5034684,18.5248082 33.9740502,18.0545315 L34.7528599,17.2754166 C34.7134921,25.3772354 28.110699,31.9562248 20.0000301,31.9562248 L20.0000301,34.3658964 C24.5846928,34.3658964 28.8946967,32.5806154 32.1362788,29.3390333 Z" id="Path" fill="#8ADC88"></path>
                        <path d="M26.110574,15.4016345 C25.9033593,15.0030743 25.4913713,14.753135 25.0418467,14.753135 L23.2471053,14.753135 L24.3060669,6.97022533 C24.3811402,6.41938223 24.0692501,5.88868073 23.551366,5.68604371 C23.0337871,5.48340668 22.4444917,5.66132445 22.1255826,6.1166474 L13.9712734,17.7566795 C13.7133995,18.1247221 13.6819664,18.6056799 13.889181,19.00424 C14.0967009,19.4028002 14.5086889,19.6527396 14.9579083,19.6527396 L16.7526497,19.6527396 L15.6939933,27.435344 C15.61892,27.9861871 15.9308101,28.5168886 16.448389,28.7198308 C16.5918218,28.775678 16.7404427,28.8028387 16.8872324,28.8028387 C17.2714493,28.8028387 17.6437643,28.6185123 17.8744776,28.2892271 L26.0287867,16.649195 C26.2863555,16.2811525 26.3180938,15.8001947 26.110574,15.4016345 Z" id="Path" fill="#8ADC88"></path>
                        <path d="M25.0418467,14.753135 L23.2471053,14.753135 L24.3060669,6.97022533 C24.3811402,6.41938223 24.0692501,5.88868073 23.551366,5.68604371 C23.0337871,5.48340668 22.4444917,5.66132445 22.1252774,6.1166474 L20.0000301,9.15070954 L20.0000301,25.2548598 L26.0287867,16.649195 C26.2863555,16.2811525 26.3180938,15.8001947 26.110574,15.4016345 C25.9033593,15.0030743 25.4913713,14.753135 25.0418467,14.753135 Z" id="Path" fill="#53BE4F"></path>
                    </g>
                </g>
            </g>
        </g>
    </g>
</svg>